<svg width="162" height="162" viewBox="0 0 162 162" fill="none" xmlns="http://www.w3.org/2000/svg">
<g clip-path="url(#clip0_60_21)">
<path d="M81 162C125.735 162 162 125.735 162 81C162 36.2649 125.735 0 81 0C36.2649 0 0 36.2649 0 81C0 125.735 36.2649 162 81 162Z" fill="#0A0839"/>
<path d="M58.2208 158.754C60.3146 156.509 61.7737 153.624 62.2593 150.347C63.573 141.783 57.6723 133.799 49.0695 132.528C40.7428 131.254 32.9616 136.8 31.3648 145.016C39.2774 151.16 48.3595 155.869 58.2208 158.754Z" fill="#F14A3B"/>
<path d="M122.738 150.432C110.549 157.776 96.2676 162 81 162C78.7862 162 76.5932 161.911 74.4243 161.737C75.0739 161.003 75.7507 160.29 76.4541 159.602C80.3514 155.706 84.9429 152.656 90.0743 150.534C95.36 148.334 100.954 147.213 106.702 147.251C112.237 147.287 117.628 148.324 122.738 150.432Z" fill="white"/>
<path d="M156.171 111.229C153.723 106.235 150.318 101.719 146.102 97.9777C146.007 97.8819 145.901 97.7956 145.796 97.7094C145.689 97.6221 145.582 97.5347 145.485 97.4377C131.715 85.5972 111.423 83.6728 95.9513 93.0507C86.4598 98.8395 82.4089 99.4191 78.6283 98.957C78.5705 98.9378 78.5127 98.9378 78.4549 98.9378C78.397 98.9378 78.3391 98.9378 78.2811 98.9185C73.459 98.1865 69.2546 95.68 66.3621 91.7842C63.4696 87.8885 62.3133 83.105 63.0087 78.3211C63.7428 73.4987 66.2513 69.293 70.1483 66.3989C74.0453 63.5046 78.8293 62.3462 83.6129 63.0396C88.8594 63.81 93.4496 66.8567 96.2647 71.2925L117.447 57.9783C110.737 47.3322 99.7437 40.1977 87.2833 38.3101C81.5739 37.4626 75.7871 37.7726 70.193 39.2011C64.7916 40.5912 59.776 42.9841 55.3002 46.3028C50.7472 49.6216 47.0042 53.7503 44.1098 58.496C43.2994 59.8465 42.5274 61.2354 41.8713 62.663C40.1344 66.4055 38.899 70.4179 38.3966 74.6231C37.5466 80.3328 37.854 86.1194 39.2801 91.713C40.6678 97.1137 43.0585 102.128 46.3752 106.603C49.6919 111.154 53.819 114.895 58.5635 117.788C63.5009 120.796 68.9013 122.723 74.6493 123.609C74.9193 123.648 75.1895 123.686 75.4595 123.725C79.78 124.496 84.6023 124.687 90.3123 122.989C95.0908 121.61 98.3325 119.674 102.762 117.03C104.162 116.194 105.681 115.287 107.404 114.305C114.812 110.06 123.569 111.485 129.278 116.422L129.509 116.653C132.055 118.967 133.944 121.937 134.87 125.255C135.795 128.495 135.794 131.89 134.867 135.13L139.933 136.569C146.818 129.27 152.362 120.692 156.171 111.229Z" fill="#44DBA4"/>
<path d="M145.057 31.4189C142.857 35.5606 141.355 40.0979 140.635 44.8958C139.012 55.9295 141.749 66.9238 148.306 75.8724C151.948 80.7864 156.522 84.7696 161.733 87.6303C161.91 85.4437 162 83.2325 162 81.0003C162 62.3222 155.678 45.1208 145.057 31.4189Z" fill="#FCB70F"/>
</g>
<defs>
<clipPath id="clip0_60_21">
<rect width="162" height="162" fill="white"/>
</clipPath>
</defs>
</svg>
